<svg width="1440" height="1139" viewBox="0 0 1440 1139" fill="none" xmlns="http://www.w3.org/2000/svg">
<rect width="1440" height="1139" fill="#0C0720"/>
<line x1="1440" y1="37.5" y2="37.5" stroke="#3924B5"/>
<line x1="1440" y1="94.5" y2="94.5" stroke="#3924B5"/>
<line x1="1440" y1="151.5" y2="151.5" stroke="#3924B5"/>
<line x1="1440" y1="208.5" y2="208.5" stroke="#3924B5"/>
<line x1="1440" y1="265.5" y2="265.5" stroke="#3924B5"/>
<line x1="1440" y1="322.5" y2="322.5" stroke="#3924B5"/>
<line x1="1440" y1="379.5" y2="379.5" stroke="#3924B5"/>
<line x1="1440" y1="436.5" y2="436.5" stroke="#3924B5"/>
<line x1="1440" y1="493.5" y2="493.5" stroke="#3924B5"/>
<line x1="1440" y1="550.5" y2="550.5" stroke="#3924B5"/>
<line x1="1440" y1="607.5" y2="607.5" stroke="#3924B5"/>
<line x1="1440" y1="664.5" y2="664.5" stroke="#3924B5"/>
<line x1="1440" y1="721.5" y2="721.5" stroke="#3924B5"/>
<line x1="1440" y1="778.5" y2="778.5" stroke="#3924B5"/>
<line x1="1440" y1="835.5" y2="835.5" stroke="#3924B5"/>
<line x1="1440" y1="892.5" y2="892.5" stroke="#3924B5"/>
<line x1="1440" y1="949.5" y2="949.5" stroke="#3924B5"/>
<line x1="1440" y1="1006.5" y2="1006.5" stroke="#3924B5"/>
<line x1="1440" y1="1063.5" y2="1063.5" stroke="#3924B5"/>
<line x1="1440" y1="1120.5" y2="1120.5" stroke="#3924B5"/>
<g clip-path="url(#clip0_4034_28395)">
<line x1="0.5" y1="2.18557e-08" x2="0.49995" y2="1139" stroke="#3924B5"/>
<line x1="56.5" y1="1.45314e-08" x2="56.4999" y2="1139" stroke="#3924B5"/>
<line x1="112.5" y1="1.45314e-08" x2="112.5" y2="1139" stroke="#3924B5"/>
<line x1="168.5" y1="1.45314e-08" x2="168.5" y2="1139" stroke="#3924B5"/>
<line x1="224.5" y1="1.45314e-08" x2="224.5" y2="1139" stroke="#3924B5"/>
<line x1="280.5" y1="1.45314e-08" x2="280.5" y2="1139" stroke="#3924B5"/>
<line x1="336.5" y1="1.45314e-08" x2="336.5" y2="1139" stroke="#3924B5"/>
<line x1="392.5" y1="1.45314e-08" x2="392.5" y2="1139" stroke="#3924B5"/>
<line x1="448.5" y1="1.45314e-08" x2="448.5" y2="1139" stroke="#3924B5"/>
<line x1="504.5" y1="1.45314e-08" x2="504.5" y2="1139" stroke="#3924B5"/>
<line x1="560.501" y1="1.45314e-08" x2="560.501" y2="1139" stroke="#3924B5"/>
<line x1="616.501" y1="1.45314e-08" x2="616.501" y2="1139" stroke="#3924B5"/>
<line x1="672.501" y1="1.45314e-08" x2="672.501" y2="1139" stroke="#3924B5"/>
<line x1="728.501" y1="1.45314e-08" x2="728.501" y2="1139" stroke="#3924B5"/>
<line x1="784.501" y1="1.45314e-08" x2="784.501" y2="1139" stroke="#3924B5"/>
<line x1="840.501" y1="1.45314e-08" x2="840.501" y2="1139" stroke="#3924B5"/>
<line x1="896.501" y1="1.45314e-08" x2="896.501" y2="1139" stroke="#3924B5"/>
<line x1="952.501" y1="1.45314e-08" x2="952.501" y2="1139" stroke="#3924B5"/>
<line x1="1008.5" y1="1.45314e-08" x2="1008.5" y2="1139" stroke="#3924B5"/>
<line x1="1064.5" y1="1.45314e-08" x2="1064.5" y2="1139" stroke="#3924B5"/>
<line x1="1120.5" y1="1.45314e-08" x2="1120.5" y2="1139" stroke="#3924B5"/>
<line x1="1176.5" y1="1.45314e-08" x2="1176.5" y2="1139" stroke="#3924B5"/>
<line x1="1232.5" y1="1.45314e-08" x2="1232.5" y2="1139" stroke="#3924B5"/>
<line x1="1288.5" y1="1.45314e-08" x2="1288.5" y2="1139" stroke="#3924B5"/>
<line x1="1344.5" y1="1.45314e-08" x2="1344.5" y2="1139" stroke="#3924B5"/>
<line x1="1400.5" y1="1.45314e-08" x2="1400.5" y2="1139" stroke="#3924B5"/>
</g>
<rect width="1440" height="1139" fill="url(#paint0_radial_4034_28395)"/>
<g filter="url(#filter0_d_4034_28395)">
<path fill-rule="evenodd" clip-rule="evenodd" d="M776.929 658.422C807.258 639.536 827.446 606.416 827.446 568.645C827.446 509.848 778.604 462.215 718.318 462.215C687.338 462.215 659.335 474.774 639.519 494.963H726.691C763.719 494.963 793.861 524.361 793.861 560.458C793.861 590.322 773.208 615.627 745.019 623.442L776.929 658.422ZM674.127 593.764H726.877C744.926 593.764 759.532 578.786 759.718 560.458C759.718 542.037 745.019 527.059 726.97 527.059H620.633C615.33 539.898 612.446 553.946 612.446 568.738C612.446 628.651 659.986 677.215 718.69 677.215C727.435 677.215 735.995 676.098 744.088 674.052L674.127 593.764Z" fill="#5F47EE"/>
</g>
<defs>
<filter id="filter0_d_4034_28395" x="595.446" y="450" width="261.054" height="261.215" filterUnits="userSpaceOnUse" color-interpolation-filters="sRGB">
<feFlood flood-opacity="0" result="BackgroundImageFix"/>
<feColorMatrix in="SourceAlpha" type="matrix" values="0 0 0 0 0 0 0 0 0 0 0 0 0 0 0 0 0 0 127 0" result="hardAlpha"/>
<feOffset dx="6" dy="11"/>
<feGaussianBlur stdDeviation="11.5"/>
<feComposite in2="hardAlpha" operator="out"/>
<feColorMatrix type="matrix" values="0 0 0 0 0.47717 0 0 0 0 0.995833 0 0 0 0 0.497917 0 0 0 0.25 0"/>
<feBlend mode="normal" in2="BackgroundImageFix" result="effect1_dropShadow_4034_28395"/>
<feBlend mode="normal" in="SourceGraphic" in2="effect1_dropShadow_4034_28395" result="shape"/>
</filter>
<radialGradient id="paint0_radial_4034_28395" cx="0" cy="0" r="1" gradientUnits="userSpaceOnUse" gradientTransform="translate(720 569.5) rotate(90) scale(569.5 720)">
<stop stop-color="#0C0720" stop-opacity="0"/>
<stop offset="1" stop-color="#0C0720"/>
</radialGradient>
<clipPath id="clip0_4034_28395">
<rect width="1440" height="1139" fill="white"/>
</clipPath>
</defs>
</svg>
