<svg width="129" height="40" viewBox="0 0 129 40" fill="none" xmlns="http://www.w3.org/2000/svg">
<g clip-path="url(#clip0_3961_472)">
<path fill-rule="evenodd" clip-rule="evenodd" d="M30.4209 36.5437C36.032 33.0301 39.767 26.8683 39.767 19.841C39.767 8.902 30.7307 0.0400391 19.5773 0.0400391C13.8457 0.0400391 8.66488 2.37669 4.99872 6.13264H21.1264C27.9768 6.13264 33.5535 11.6021 33.5535 18.3178C33.5535 23.8739 29.7324 28.5818 24.5172 30.0357L30.4209 36.5437ZM11.4016 24.5143H21.1608C24.4999 24.5143 27.2022 21.7276 27.2367 18.3178C27.2367 14.8907 24.5172 12.1041 21.178 12.1041H1.50465C0.523563 14.4926 -0.0100098 17.1062 -0.0100098 19.8583C-0.0100098 31.005 8.78535 40.04 19.6461 40.04C21.2641 40.04 22.8476 39.8323 24.345 39.4516L11.4016 24.5143Z" fill="#6C60F7"/>
</g>
<path d="M52.7879 27C51.0695 27 49.5214 26.6342 48.1436 25.9025C46.7813 25.1708 45.7054 24.1589 44.9158 22.8668C44.1418 21.5746 43.7548 20.119 43.7548 18.5C43.7548 16.881 44.1418 15.4254 44.9158 14.1332C45.7054 12.8411 46.7813 11.8292 48.1436 11.0975C49.5214 10.3658 51.0695 10 52.7879 10C54.5063 10 56.0467 10.3658 57.409 11.0975C58.7868 11.8292 59.8627 12.8411 60.6368 14.1332C61.4263 15.4254 61.8211 16.881 61.8211 18.5C61.8211 20.119 61.4263 21.5746 60.6368 22.8668C59.8627 24.1589 58.7868 25.1708 57.409 25.9025C56.0467 26.6342 54.5063 27 52.7879 27ZM52.7879 23.1703C53.6084 23.1703 54.3515 22.9757 55.0172 22.5865C55.6829 22.1973 56.2092 21.6525 56.5962 20.9519C56.9833 20.2358 57.1768 19.4185 57.1768 18.5C57.1768 17.5815 56.9833 16.772 56.5962 16.0714C56.2092 15.3553 55.6829 14.8027 55.0172 14.4135C54.3515 14.0243 53.6084 13.8297 52.7879 13.8297C51.9674 13.8297 51.2243 14.0243 50.5587 14.4135C49.893 14.8027 49.3666 15.3553 48.9796 16.0714C48.5926 16.772 48.3991 17.5815 48.3991 18.5C48.3991 19.4185 48.5926 20.2358 48.9796 20.9519C49.3666 21.6525 49.893 22.1973 50.5587 22.5865C51.2243 22.9757 51.9674 23.1703 52.7879 23.1703Z" fill="#6C60F7"/>
<path d="M76.7224 18.1497C77.6512 18.4766 78.3788 18.9904 78.9052 19.6909C79.4315 20.3759 79.6947 21.2088 79.6947 22.1896C79.6947 23.6218 79.1219 24.7271 77.9763 25.5055C76.8307 26.2839 75.1743 26.6731 73.0069 26.6731H64.2292V10.3269H72.5425C74.617 10.3269 76.196 10.7161 77.2797 11.4945C78.3634 12.2573 78.9052 13.2926 78.9052 14.6003C78.9052 15.3787 78.7117 16.0792 78.3247 16.7019C77.9531 17.3091 77.419 17.7917 76.7224 18.1497ZM68.7806 13.6662V16.8187H71.9387C73.4868 16.8187 74.2609 16.2894 74.2609 15.2308C74.2609 14.1877 73.4868 13.6662 71.9387 13.6662H68.7806ZM72.6354 23.3338C74.2454 23.3338 75.0504 22.7811 75.0504 21.6758C75.0504 20.5705 74.2454 20.0179 72.6354 20.0179H68.7806V23.3338H72.6354Z" fill="#6C60F7"/>
<path d="M89.5767 27C87.1617 27 85.2808 26.3384 83.9339 25.0151C82.6025 23.6919 81.9369 21.8159 81.9369 19.3874V10.3269H86.5347V19.2473C86.5347 21.8626 87.5642 23.1703 89.6232 23.1703C91.6667 23.1703 92.6884 21.8626 92.6884 19.2473V10.3269H97.2166V19.3874C97.2166 21.8159 96.5432 23.6919 95.1963 25.0151C93.865 26.3384 91.9918 27 89.5767 27Z" fill="#6C60F7"/>
<path d="M106.044 27C104.728 27 103.451 26.8365 102.212 26.5096C100.974 26.1827 99.9676 25.7468 99.1935 25.2019L100.703 21.7926C101.431 22.2752 102.274 22.6644 103.234 22.9602C104.194 23.256 105.138 23.4038 106.067 23.4038C107.832 23.4038 108.714 22.9602 108.714 22.0728C108.714 21.6058 108.459 21.2633 107.948 21.0453C107.453 20.8118 106.648 20.5705 105.533 20.3214C104.31 20.0568 103.288 19.7766 102.468 19.4808C101.647 19.1694 100.943 18.679 100.355 18.0096C99.7663 17.3402 99.4722 16.4373 99.4722 15.3008C99.4722 14.3045 99.7431 13.4093 100.285 12.6154C100.827 11.8059 101.632 11.1676 102.7 10.7006C103.784 10.2335 105.107 10 106.671 10C107.739 10 108.792 10.1245 109.829 10.3736C110.866 10.6071 111.78 10.9574 112.569 11.4245L111.153 14.8571C109.604 14.0165 108.103 13.5962 106.648 13.5962C105.734 13.5962 105.069 13.7363 104.651 14.0165C104.233 14.2811 104.024 14.6314 104.024 15.0673C104.024 15.5032 104.271 15.8301 104.767 16.0481C105.262 16.266 106.059 16.4918 107.158 16.7253C108.397 16.9899 109.419 17.2779 110.224 17.5893C111.044 17.8851 111.749 18.3677 112.337 19.0371C112.941 19.6909 113.243 20.5861 113.243 21.7225C113.243 22.7033 112.972 23.5907 112.43 24.3846C111.888 25.1786 111.075 25.8169 109.992 26.2995C108.908 26.7665 107.592 27 106.044 27Z" fill="#6C60F7"/>
<path d="M118.6 13.9931H113.607V10.3269H128.167V13.9931H123.197V26.6731H118.6V13.9931Z" fill="#6C60F7"/>
<path d="M58.6831 29.6003C59.7491 29.6003 60.5845 29.8563 61.1891 30.3683C61.7937 30.8803 62.096 31.5843 62.096 32.4803C62.096 33.3763 61.7937 34.0803 61.1891 34.5923C60.5845 35.0963 59.7491 35.3483 58.6831 35.3483H56.4397V38.0003H55.5566V29.6003H58.6831ZM58.6592 34.5683C59.4866 34.5683 60.1191 34.3883 60.5566 34.0283C60.9942 33.6603 61.2129 33.1443 61.2129 32.4803C61.2129 31.8003 60.9942 31.2803 60.5566 30.9203C60.1191 30.5523 59.4866 30.3683 58.6592 30.3683H56.4397V34.5683H58.6592Z" fill="#6C60F7"/>
<path d="M69.7094 38.0003L67.8001 35.3003C67.5853 35.3243 67.3626 35.3363 67.1319 35.3363H64.8884V38.0003H64.0054V29.6003H67.1319C68.1979 29.6003 69.0332 29.8563 69.6378 30.3683C70.2424 30.8803 70.5447 31.5843 70.5447 32.4803C70.5447 33.1363 70.3777 33.6923 70.0435 34.1483C69.7174 34.5963 69.248 34.9203 68.6354 35.1203L70.676 38.0003H69.7094ZM67.108 34.5803C67.9353 34.5803 68.5678 34.3963 69.0054 34.0283C69.4429 33.6603 69.6617 33.1443 69.6617 32.4803C69.6617 31.8003 69.4429 31.2803 69.0054 30.9203C68.5678 30.5523 67.9353 30.3683 67.108 30.3683H64.8884V34.5803H67.108Z" fill="#6C60F7"/>
<path d="M76.2804 38.0723C75.4531 38.0723 74.7013 37.8883 74.0251 37.5203C73.3568 37.1443 72.8318 36.6323 72.4499 35.9843C72.076 35.3363 71.8891 34.6083 71.8891 33.8003C71.8891 32.9923 72.076 32.2643 72.4499 31.6163C72.8318 30.9683 73.3568 30.4603 74.0251 30.0923C74.7013 29.7163 75.4531 29.5283 76.2804 29.5283C77.1078 29.5283 77.8516 29.7123 78.5119 30.0803C79.1802 30.4483 79.7052 30.9603 80.0871 31.6163C80.469 32.2643 80.6599 32.9923 80.6599 33.8003C80.6599 34.6083 80.469 35.3403 80.0871 35.9963C79.7052 36.6443 79.1802 37.1523 78.5119 37.5203C77.8516 37.8883 77.1078 38.0723 76.2804 38.0723ZM76.2804 37.2803C76.9407 37.2803 77.5374 37.1323 78.0704 36.8363C78.6034 36.5323 79.0211 36.1163 79.3234 35.5883C79.6257 35.0523 79.7768 34.4563 79.7768 33.8003C79.7768 33.1443 79.6257 32.5523 79.3234 32.0243C79.0211 31.4883 78.6034 31.0723 78.0704 30.7763C77.5374 30.4723 76.9407 30.3203 76.2804 30.3203C75.6201 30.3203 75.0195 30.4723 74.4785 30.7763C73.9455 31.0723 73.5239 31.4883 73.2136 32.0243C72.9113 32.5523 72.7602 33.1443 72.7602 33.8003C72.7602 34.4563 72.9113 35.0523 73.2136 35.5883C73.5239 36.1163 73.9455 36.5323 74.4785 36.8363C75.0195 37.1323 75.6201 37.2803 76.2804 37.2803Z" fill="#6C60F7"/>
<path d="M84.1456 30.3683H81.21V29.6003H87.9642V30.3683H85.0286V38.0003H84.1456V30.3683Z" fill="#6C60F7"/>
<path d="M92.9099 38.0723C92.0825 38.0723 91.3307 37.8883 90.6545 37.5203C89.9863 37.1443 89.4612 36.6323 89.0794 35.9843C88.7055 35.3363 88.5185 34.6083 88.5185 33.8003C88.5185 32.9923 88.7055 32.2643 89.0794 31.6163C89.4612 30.9683 89.9863 30.4603 90.6545 30.0923C91.3307 29.7163 92.0825 29.5283 92.9099 29.5283C93.7373 29.5283 94.4811 29.7123 95.1414 30.0803C95.8096 30.4483 96.3347 30.9603 96.7166 31.6163C97.0984 32.2643 97.2893 32.9923 97.2893 33.8003C97.2893 34.6083 97.0984 35.3403 96.7166 35.9963C96.3347 36.6443 95.8096 37.1523 95.1414 37.5203C94.4811 37.8883 93.7373 38.0723 92.9099 38.0723ZM92.9099 37.2803C93.5702 37.2803 94.1668 37.1323 94.6999 36.8363C95.2329 36.5323 95.6505 36.1163 95.9528 35.5883C96.2551 35.0523 96.4063 34.4563 96.4063 33.8003C96.4063 33.1443 96.2551 32.5523 95.9528 32.0243C95.6505 31.4883 95.2329 31.0723 94.6999 30.7763C94.1668 30.4723 93.5702 30.3203 92.9099 30.3203C92.2496 30.3203 91.649 30.4723 91.108 30.7763C90.575 31.0723 90.1533 31.4883 89.8431 32.0243C89.5408 32.5523 89.3896 33.1443 89.3896 33.8003C89.3896 34.4563 89.5408 35.0523 89.8431 35.5883C90.1533 36.1163 90.575 36.5323 91.108 36.8363C91.649 37.1323 92.2496 37.2803 92.9099 37.2803Z" fill="#6C60F7"/>
<path d="M102.896 38.0723C102.069 38.0723 101.321 37.8883 100.653 37.5203C99.9926 37.1523 99.4715 36.6443 99.0897 35.9963C98.7158 35.3403 98.5288 34.6083 98.5288 33.8003C98.5288 32.9923 98.7158 32.2643 99.0897 31.6163C99.4715 30.9603 99.9966 30.4483 100.665 30.0803C101.333 29.7123 102.081 29.5283 102.908 29.5283C103.529 29.5283 104.102 29.6323 104.627 29.8403C105.152 30.0483 105.597 30.3523 105.963 30.7523L105.402 31.3163C104.75 30.6523 103.927 30.3203 102.932 30.3203C102.272 30.3203 101.671 30.4723 101.13 30.7763C100.589 31.0803 100.164 31.4963 99.8534 32.0243C99.5511 32.5523 99.3999 33.1443 99.3999 33.8003C99.3999 34.4563 99.5511 35.0483 99.8534 35.5763C100.164 36.1043 100.589 36.5203 101.13 36.8243C101.671 37.1283 102.272 37.2803 102.932 37.2803C103.935 37.2803 104.758 36.9443 105.402 36.2723L105.963 36.8363C105.597 37.2363 105.148 37.5443 104.615 37.7603C104.09 37.9683 103.517 38.0723 102.896 38.0723Z" fill="#6C60F7"/>
<path d="M111.322 38.0723C110.495 38.0723 109.743 37.8883 109.067 37.5203C108.399 37.1443 107.874 36.6323 107.492 35.9843C107.118 35.3363 106.931 34.6083 106.931 33.8003C106.931 32.9923 107.118 32.2643 107.492 31.6163C107.874 30.9683 108.399 30.4603 109.067 30.0923C109.743 29.7163 110.495 29.5283 111.322 29.5283C112.15 29.5283 112.894 29.7123 113.554 30.0803C114.222 30.4483 114.747 30.9603 115.129 31.6163C115.511 32.2643 115.702 32.9923 115.702 33.8003C115.702 34.6083 115.511 35.3403 115.129 35.9963C114.747 36.6443 114.222 37.1523 113.554 37.5203C112.894 37.8883 112.15 38.0723 111.322 38.0723ZM111.322 37.2803C111.983 37.2803 112.579 37.1323 113.112 36.8363C113.645 36.5323 114.063 36.1163 114.365 35.5883C114.668 35.0523 114.819 34.4563 114.819 33.8003C114.819 33.1443 114.668 32.5523 114.365 32.0243C114.063 31.4883 113.645 31.0723 113.112 30.7763C112.579 30.4723 111.983 30.3203 111.322 30.3203C110.662 30.3203 110.061 30.4723 109.52 30.7763C108.987 31.0723 108.566 31.4883 108.256 32.0243C107.953 32.5523 107.802 33.1443 107.802 33.8003C107.802 34.4563 107.953 35.0523 108.256 35.5883C108.566 36.1163 108.987 36.5323 109.52 36.8363C110.061 37.1323 110.662 37.2803 111.322 37.2803Z" fill="#6C60F7"/>
<path d="M117.681 29.6003H118.564V37.2323H123.242V38.0003H117.681V29.6003Z" fill="#6C60F7"/>
<defs>
<clipPath id="clip0_3961_472">
<rect width="39.777" height="40" fill="white"/>
</clipPath>
</defs>
</svg>
