<svg width="64" height="64" viewBox="0 0 64 64" fill="none" xmlns="http://www.w3.org/2000/svg">
<circle cx="32" cy="32" r="32" fill="#FCFCFC"/>
<path fill-rule="evenodd" clip-rule="evenodd" d="M61.12 31.9999C61.12 48.0429 48.043 61.1199 32 61.1199C15.9653 61.1199 2.88 48.0429 2.88 31.9999C2.88 15.9652 15.957 2.87988 32 2.87988C48.043 2.87988 61.12 15.9569 61.12 31.9999ZM12.3762 16.8708C12.3762 14.5445 12.7833 12.426 13.6141 10.4902C-1.58979 23.4675 4.10959 44.3209 22.4872 50.8428C25.1042 51.765 27.6631 52.2219 30.1722 52.2219C33.8527 52.2219 38.5551 50.66 38.5551 46.2733C38.5551 42.5017 32.3971 38.9848 28.9996 37.0445C28.7674 36.9119 28.548 36.7866 28.3444 36.6691L28.2342 36.6069C20.0912 32.0106 12.3762 27.656 12.3762 16.8708ZM51.3912 47.3367C51.3912 49.663 50.9841 51.7899 50.1533 53.7174C65.3572 40.7401 59.6578 19.895 41.2802 13.3648C38.6631 12.4426 36.1042 11.9856 33.5869 11.9856C29.9147 11.9856 25.2123 13.5476 25.2123 17.9343C25.2123 21.7059 31.3702 25.2227 34.7677 27.163L34.7696 27.1641C35.0012 27.2964 35.2199 27.4213 35.4229 27.5385L35.497 27.5802C43.6533 32.1758 51.3912 36.5356 51.3912 47.3367Z" fill="#5F47EE"/>
</svg>
