<svg width="64" height="64" viewBox="0 0 64 64" fill="none" xmlns="http://www.w3.org/2000/svg">
<circle cx="32" cy="32" r="32" fill="#FCFCFC"/>
<g clip-path="url(#clip0_3738_26796)">
<path fill-rule="evenodd" clip-rule="evenodd" d="M47.4213 56.0874C55.6369 50.9715 61.1055 41.9999 61.1055 31.7682C61.1055 15.841 47.8749 2.93799 31.5445 2.93799C23.1525 2.93799 15.5669 6.34016 10.1991 11.8088H33.8126C43.8427 11.8088 52.0079 19.7724 52.0079 29.5505C52.0079 37.6401 46.4132 44.4948 38.7772 46.6117L47.4213 56.0874ZM19.5739 38.5725H33.863C38.752 38.5725 42.7086 34.5151 42.759 29.5505C42.759 24.5606 38.7772 20.5032 33.8882 20.5032H5.08318C3.64671 23.981 2.86548 27.7864 2.86548 31.7934C2.86548 48.023 15.7433 61.178 31.6453 61.178C34.0142 61.178 36.3327 60.8756 38.5252 60.3211L19.5739 38.5725Z" fill="#5F47EE"/>
</g>
<defs>
<clipPath id="clip0_3738_26796">
<rect width="58.24" height="58.24" fill="white" transform="translate(2.88 2.87988)"/>
</clipPath>
</defs>
</svg>
