<svg width="64" height="64" viewBox="0 0 64 64" fill="none" xmlns="http://www.w3.org/2000/svg">
<path d="M32 64C49.6731 64 64 49.6731 64 32C64 14.3269 49.6731 0 32 0C14.3269 0 0 14.3269 0 32C0 49.6731 14.3269 64 32 64Z" fill="white"/>
<path fill-rule="evenodd" clip-rule="evenodd" d="M32 61.9093C48.4753 61.9093 61.9094 48.4752 61.9094 31.9999C61.9094 15.5246 48.4753 2.09058 32 2.09058C15.5247 2.09058 2.0907 15.5246 2.0907 31.9999C2.0907 48.4752 15.5247 61.9093 32 61.9093Z" fill="#3D3DCE"/>
<path d="M49.8893 10.4814L46.4965 10.996C45.1559 11.1965 43.922 11.6727 42.8553 12.3588C40.8431 13.6524 39.4377 15.6868 39.075 18.0454L38.7124 20.4202L35.4424 41.8696L26.8212 20.6677L22.7235 37.3939C18.9227 25.6477 9.14949 28.6745 6.14575 39.0937C7.30031 36.579 12.3742 31.7295 16.4318 32.785C16.4899 32.7961 16.5411 32.8072 16.5931 32.8294C16.7203 32.8627 16.8406 32.9062 16.9618 32.9557C16.9677 32.9557 16.9728 32.9608 16.9788 32.9608C18.7469 33.699 20.3828 35.9688 21.3914 40.4667C23.2969 48.9941 24.5376 52.4288 24.5376 52.4288L29.0083 30.1542C29.0194 30.1866 29.0313 30.2191 29.0424 30.2566L38.2678 56.0717L45.9085 26.0949L48.4122 16.2747L49.8893 10.4814Z" fill="white"/>
</svg>
