<svg width="40" height="40" viewBox="0 0 40 40" fill="none" xmlns="http://www.w3.org/2000/svg">
<path d="M16.6667 5V8.33333H8.33333V31.6667H31.6667V23.3333H35V33.3333C35 33.7754 34.8244 34.1993 34.5118 34.5118C34.1993 34.8244 33.7754 35 33.3333 35H6.66667C6.22464 35 5.80072 34.8244 5.48816 34.5118C5.17559 34.1993 5 33.7754 5 33.3333V6.66667C5 6.22464 5.17559 5.80072 5.48816 5.48816C5.80072 5.17559 6.22464 5 6.66667 5H16.6667ZM29.5117 12.845L20 22.3567L17.6433 20L27.155 10.4883L21.6667 5H35V18.3333L29.5117 12.845Z" fill="#E354FA"/>
</svg>
